HIERARCHY
ROOT HipCenter
{
    OFFSET 0.0 0.0 -0.0
    CHANNELS 6 Xposition Yposition Zposition Zrotation Xrotation Yrotation
    JOINT Spine
    {
        OFFSET 0.0 0.11783101409673691 0.0
        CHANNELS 3 Zrotation Xrotation Yrotation
        JOINT ShoulderCenter
        {
            OFFSET 0.0 0.3146894574165344 0.0
            CHANNELS 3 Zrotation Xrotation Yrotation
            JOINT LeftShoulder
            {
                OFFSET 0.1694869101047516 0.0 0.0
                CHANNELS 3 Zrotation Xrotation Yrotation
                JOINT LeftElbow
                {
                    OFFSET 0.24582691490650177 0.0 0.0
                    CHANNELS 3 Zrotation Xrotation Yrotation
                    JOINT LeftWrist
                    {
                        OFFSET 0.2672960162162781 0.0 0.0
                        CHANNELS 3 Zrotation Xrotation Yrotation
                        JOINT LeftHand
                        {
                            OFFSET 0.03278522938489914 0.0 0.0
                            CHANNELS 3 Zrotation Xrotation Yrotation
                            End Site
                            {
                                OFFSET 0.013114092871546745 0.0 0.0
                            }
                        }
                    }
                }
            }
            JOINT RightShoulder
            {
                OFFSET -0.1694869101047516 0.0 0.0
                CHANNELS 3 Zrotation Xrotation Yrotation
                JOINT RightElbow
                {
                    OFFSET -0.24582691490650177 0.0 0.0
                    CHANNELS 3 Zrotation Xrotation Yrotation
                    JOINT RightWrist
                    {
                        OFFSET -0.2672960162162781 0.0 0.0
                        CHANNELS 3 Zrotation Xrotation Yrotation
                        JOINT RightHand
                        {
                            OFFSET -0.03278522938489914 0.0 0.0
                            CHANNELS 3 Zrotation Xrotation Yrotation
                            End Site
                            {
                                OFFSET -0.013114092871546745 0.0 0.0
                            }
                        }
                    }
                }
            }
            End Site
            {
                OFFSET 0.0 0.12587577104568481 0.0
            }
        }
    }
    JOINT LeftHip
    {
        OFFSET 0.1233789324760437 0.0 0.0
        CHANNELS 3 Zrotation Xrotation Yrotation
        JOINT LeftKnee
        {
            OFFSET 0.0 -0.36664825677871704 0.0
            CHANNELS 3 Zrotation Xrotation Yrotation
            JOINT LeftAnkle
            {
                OFFSET 0.0 -0.3812258243560791 0.0
                CHANNELS 3 Zrotation Xrotation Yrotation
                JOINT LeftFoot
                {
                    OFFSET 0.0 -0.11607472598552704 0.0
                    CHANNELS 3 Zrotation Xrotation Yrotation
                    End Site
                    {
                        OFFSET 0.0 0.0 0.04642988741397858
                    }
                }
            }
        }
    }
    JOINT RightHip
    {
        OFFSET -0.1233789324760437 0.0 0.0
        CHANNELS 3 Zrotation Xrotation Yrotation
        JOINT RightKnee
        {
            OFFSET 0.0 -0.36664825677871704 0.0
            CHANNELS 3 Zrotation Xrotation Yrotation
            JOINT RightAnkle
            {
                OFFSET 0.0 -0.3812258243560791 0.0
                CHANNELS 3 Zrotation Xrotation Yrotation
                JOINT RightFoot
                {
                    OFFSET 0.0 -0.11607472598552704 0.0
                    CHANNELS 3 Zrotation Xrotation Yrotation
                    End Site
                    {
                        OFFSET 0.0 0.0 0.04642988741397858
                    }
                }
            }
        }
    }
}
MOTION
Frames: 10
Frame Time: 0.03333333333333333
0.5090000033378601 0.125 -0.5950000286102295 -2.4895506037392416 -13.671588413456522 -12.848935519582033 0.382493368349058 3.63995706620242 0.1426646032238115 -3.854362620899656e-08 8.405790973018242e-07 4.619972369584228 -137.55349772177522 71.91602381427526 142.3887164377156 -3.329727439155639e-06 -3.319188229909454e-06 78.00763256703672 -179.99999415975694 41.10901876671751 -126.1740221942429 -1.987846675914698e-15 -2.758691436281349e-32 1.5902773407317584e-15 -177.26168451360073 31.025684875521662 -166.2974352897593 1.0663975124917127e-06 4.93036111782863e-08 -70.73851463379972 7.532477788833269e-06 -61.95279012567252 -42.60318090673878 0.0 0.0 0.0 8.232595157398142 -9.388472920505581 -24.744009735937155 -37.29938621219833 45.681121845934804 -12.003052052779806 61.19130618206801 -34.95149436485191 61.42457674866752 -3.975693351829396e-16 3.4483642953516864e-34 -9.93923337957349e-17 -3.5774230958145434 -9.723134676900498 26.164755830587666 35.21258641823752 47.436463327015765 15.551758702694807 -125.90169142044363 -23.123321817228984 -161.6007342785005 6.3611093629270335e-15 -6.3611093629270335e-15 6.3611093629270335e-15
0.5070000290870667 0.18400000035762787 -0.6650000214576721 -0.5161576322588374 -19.816397003114027 -10.922983986918483 -2.7717028330333906 4.502313103401437 0.4105824791595581 3.0268526558366774e-07 -1.3476350893399636e-06 4.665969006277168 -166.12214544473724 64.43035825438845 151.1477603547396 -1.3900166389981771e-06 2.7106136303453146e-06 74.5466515667646 179.99999158714357 37.81736460451345 -123.16823393311473 0.0 0.0 0.0 -157.1665423474778 34.39219679169648 -166.8053527234179 -4.350567234651999e-06 -2.049005333729462e-06 -70.08611159931752 1.2229713281351924e-05 -75.85358472063069 -40.686380719664065 0.0 7.951386703658792e-16 0.0 7.354162232403651 -25.148151371443973 -8.072107440859972 -35.701888108635366 68.38552459233716 -19.89145921479798 61.65052465069226 -35.72391345061807 57.129360167664416 -5.862219302097867e-33 1.9878466759146985e-16 3.379339349054987e-15 -4.274679410562818 -24.339209195724013 9.354626264022766 43.03340023777417 69.4933791931164 15.220401722423086 -123.76931311992064 -24.454070158003912 -153.2347753936461 3.1805546814635168e-15 -8.827812596100317e-32 -3.1805546814635168e-15
0.5080000162124634 0.2240000069141388 -0.7350000143051147 1.6211576393649432 -25.684736949578333 -10.05921307440562 -4.936975747753818 5.453382651909293 0.664615024259618 7.565894399299279e-08 3.4535875450424205e-07 6.255476442623102 163.49302507753347 48.72286026878065 165.16220168477489 3.127454164110593e-06 -9.540824915168292e-06 68.18788086965091 179.99999802327903 37.0190190168284 -121.84535832894419 3.1805546814635176e-15 3.975693351829397e-16 -1.1034765745125397e-32 -139.27789102898308 28.314203719519718 -171.91297646802835 6.070250866848057e-06 -1.3300902293576044e-06 -66.61602499638421 -1.739571309408647e-05 -80.21529732569427 -37.71859664826705 0.0 2.484808344893373e-17 0.0 7.447237296308815 -43.11710785047637 11.984588806445414 40.76227891020859 80.34563386046017 -97.37452030933008 64.73226310981497 -11.738092030937414 35.91037736502636 6.361109362927035e-15 -6.361109362927035e-15 -4.770832022195277e-15 -4.635382510715061 -42.17694390952294 -11.928321782771132 -77.12720146777997 83.18049490613782 135.71757377532106 -154.74203640653374 -64.15677086414527 -161.4160618679644 0.0 6.3611093629270335e-15 0.0
0.5099999904632568 0.2409999966621399 -0.7960000038146973 2.290614419846284 -31.362832157963975 -9.670893583347905 -4.761341059250554 5.722830910017913 0.6316274982769509 -2.7521107043069254e-07 1.088572995549185e-06 7.441897459822307 144.00025327167552 28.40002989713637 173.15169693817145 3.507137101586316e-06 -2.927853955762506e-06 63.642365231546975 179.9999991232958 37.17077951321192 -119.21942868454184 0.0 -5.9635400277440935e-15 0.0 -126.12486555655904 19.994939117819307 -177.95416995026127 2.6123722664178826e-06 -1.484655772409638e-06 -62.808290362753986 -5.072674447273808e-06 -79.09763689922154 -33.72273880443253 -2.2069531490250793e-32 -3.1805546814635168e-15 -7.951386703658792e-16 14.244132802792008 -63.457048160784765 39.379430423870026 90.74375186989066 61.81268567111666 -147.9155827919304 10.227762570943995 8.849623017855793 -4.313285120766231 0.0 0.0 -1.5902773407317584e-15 -3.172211930191152 -62.35036192725119 -28.801587301235454 -85.89730093103763 64.67136280737141 140.58853500753506 -22.20256601942215 36.75986259545437 25.798212567032873 0.0 0.0 1.5902773407317584e-15
0.5109999775886536 0.24199999868869781 -0.8339999914169312 1.8676552627208396 -38.41642214287805 -10.092155998616802 -2.7774334145165898 4.589124691709438 0.4335233030384237 -6.011504245336478e-07 1.0036023591800834e-06 8.13702130786461 129.89823749255655 11.878949865930698 178.12428482387827 3.2855035700319172e-06 -1.5506852779084995e-06 59.64044552800103 179.9999955312567 36.263678374950885 -123.65228869378218 0.0 0.0 0.0 -117.16510502508721 8.661273678709005 177.2610817220335 -3.5148182191196886e-06 -9.654191036474475e-07 -58.85556981029791 1.3353807394842137e-05 -83.09676264053373 -28.381778471629342 -1.0758896601497261e-31 -1.5902773407317582e-15 -7.75260203606732e-15 54.83937848616144 -80.24904243312928 92.05504890430358 84.54477032652163 48.009764048423406 -141.1583029533681 -99.46263303819616 -2.716064098344842 -7.424716084499252 -6.3611093629270335e-15 3.531125038440127e-31 -6.3611093629270335e-15 -1.5377246085571126 -81.6855111013491 -39.51192973272843 -77.6660658925693 51.91748237798648 128.96384017812377 43.28559533347627 67.68133093566816 -11.061134717224483 -7.951386703658791e-16 -1.6552148617688095e-32 2.385416011097637e-15
0.5070000290870667 0.24300000071525574 -0.8330000042915344 0.784861586919291 -52.16462215324473 -8.350251804556663 -1.234356149180991 4.721498876499402 0.26776985272013504 -4.239540436434029e-08 1.7799077736644038e-06 7.268551264532598 119.006418961658 -2.8216551011937567 -178.77831844213873 -7.435087835046343e-07 1.6441676164918052e-06 57.84575218371623 -179.9999962256277 35.6566512465599 -119.09524449040458 0.0 0.0 0.0 -109.38666978431843 -3.8662286629736133 177.2370926516549 -1.0609558898798178e-06 -2.6739540425292184e-07 -54.965306496128385 -179.99996022216033 -89.00746687458299 160.95768181925587 5.172546443027529e-32 -1.5902773407317582e-15 3.727212517340058e-15 150.20383767528298 -76.09254958753522 -160.63352146358721 70.0595083419409 34.47061845487809 -109.63714441201331 -118.44685995789435 44.11816513480099 55.62529410719418 3.1805546814635168e-15 -3.1805546814635168e-15 -1.5902773407317584e-15 -161.9804486893405 -81.33774448886217 147.4121732714807 -67.52100173978364 38.32442200152661 104.00069952297969 45.363271712189224 59.533888780645704 4.7174845254491515 2.4848083448933725e-16 1.5902773407317582e-15 -4.688522745770682e-15
0.5049999952316284 0.2639999985694885 -0.8360000252723694 -7.902336717896813e-07 -67.56701078690911 -6.773784988042712 -0.21361757399836917 4.870178155658113 0.36247456123132743 -3.060349140446687e-07 2.3942498571455997e-06 7.553394844619333 110.3864931890044 -17.82820098482785 -175.70913075813894 -7.84841958937076e-07 2.746455447498055e-06 59.65609372101171 179.9999933596928 39.536644922394906 -117.62594315496283 -6.3611093629270335e-15 6.3611093629270335e-15 -3.1805546814635164e-15 -100.52577740692408 -14.747320169960942 178.92765776542623 3.006270346554219e-06 5.373789458700267e-06 -55.82513429446207 -8.046833231662415e-07 -31.096587681310602 -9.512527905920198 0.0 0.0 0.0 164.2263782412495 -67.44844968976678 -147.69287870424785 61.67668520106459 35.304072567875096 -92.41117902367353 -121.45415521317533 53.943139301273646 62.04878989569344 1.5902773407317584e-15 7.951386703658792e-16 9.93923337957349e-16 -162.76869141168004 -71.79147244485058 142.4692807000103 -60.7787065417754 31.511405241781702 92.99249149574956 37.38158174498815 67.18712111280537 19.55349109852567 1.5902773407317584e-15 7.724336021587778e-32 5.565970692561154e-15
0.5040000081062317 0.30000001192092896 -0.8410000205039978 9.46248178159796 -84.06377255731893 2.5015319927182245 2.2995371058372682 1.7596834778025028 -0.05456690265513257 1.470038568439962e-07 -2.0813251131679487e-06 10.230345939802744 100.54062297274557 -31.053446839761186 -175.13706874869638 1.6091933160840397e-06 1.169528764192815e-06 64.62067955045929 -179.99999411416985 51.02462500367264 -119.54671498813327 -6.3611093629270335e-15 -6.3611093629270335e-15 3.1805546814635164e-15 -96.27905693396939 -15.678635013057052 -175.6545379848918 5.36859176822937e-06 1.3976228010425789e-06 -64.79489420394083 2.2081017691916057e-06 -61.62951660592571 -15.008328701766974 0.0 0.0 0.0 162.0884171088685 -58.48176300312076 -143.67905938360818 56.86771753772633 30.628673181392347 -86.01405221390358 -122.48083881593942 59.63407399054938 59.620988599984145 -4.138037154422024e-33 -3.9756933518293955e-16 -1.1927080055488186e-15 -171.4220420306858 -66.29674296490138 138.9706757301426 -57.831598875696216 33.43777818953378 90.6276521838363 38.68560161827989 66.47164870842519 16.472816902286752 0.0 0.0 3.1805546814635168e-15
0.503000020980835 0.34700000286102295 -0.8560000061988831 176.7294576862978 -72.61937259263924 169.98366364761392 0.566784582005218 2.3423524404797726 -0.017196585108158555 -5.736162957279892e-07 9.083542152824465e-07 10.046727299194437 103.64325452242775 -27.784371309300763 -176.82000523597242 1.666615693799541e-06 2.348824858937524e-06 65.59692588185634 -179.9999993733143 54.05965939247327 -124.25432115056329 1.7655625192200634e-31 -6.3611093629270335e-15 3.1805546814635168e-15 -100.7248459731623 -23.072690814750207 -174.58574883959037 -2.1559489470166365e-07 -4.407516317790041e-06 -67.90611229245067 -8.345143061670838e-06 34.27710042470665 -29.479549513386807 0.0 0.0 -3.1805546814635168e-15 161.0626245311899 -58.16500394624052 -144.55979502811059 51.69316707681726 28.332855049593643 -75.1825257377656 -132.2162527306107 66.47020884817861 69.8076456495052 -4.770832022195275e-15 0.0 0.0 -176.964389894832 -66.8100099684765 134.90177658856533 -53.74637615107327 31.997132710652046 81.27780099679589 26.802559376311084 72.12954063996897 29.666410353138463 -3.1805546814635168e-15 1.5902773407317582e-15 6.3611093629270335e-15
0.5 0.3869999945163727 -0.8930000066757202 178.40885687955222 -52.24249717994206 174.27906392385526 1.1369581662680577 -1.1992461346476402 0.003273045158161899 -8.55436111049085e-08 7.599052935376332e-06 7.075546622488019 107.86822553485219 -31.531710127300737 -176.55570605402906 3.499104504347958e-06 2.9281961414373126e-06 67.34939414157232 -179.99999954012006 48.69760023451985 -123.58139824257844 -4.770832022195275e-15 -6.3611093629270335e-15 3.1805546814635164e-15 -105.64714330270988 -26.918511050859493 -176.86316499268224 -7.164698127646657e-07 -2.6537931526321145e-06 -64.61786517255553 -1.0293362356316885e-06 7.802199586623459 -15.394398620589794 6.3611093629270335e-15 2.2069531490250793e-31 3.975693351829396e-15 163.07519668846453 -58.18914268820393 -144.10647506367354 49.59053085668648 29.748144741459193 -76.65922286547213 -128.29614654407126 63.05352248450598 66.40313826100225 -6.3611093629270335e-15 3.531125038440127e-31 -6.3611093629270335e-15 -170.12554613426775 -65.41431150708101 140.83768488158768 -53.56073974250671 33.808904435028886 87.43424851581192 44.90151099369988 67.62244514021569 10.434207481524501 0.0 -6.361109362927033e-15 0.0
